<svg width="32" height="37" viewBox="0 0 32 37" fill="none" xmlns="http://www.w3.org/2000/svg">
<g clip-path="url(#clip0_2_48)">
<path d="M9.14286 0C10.4071 0 11.4286 1.0334 11.4286 2.3125V4.625H20.5714V2.3125C20.5714 1.0334 21.5929 0 22.8571 0C24.1214 0 25.1429 1.0334 25.1429 2.3125V4.625H28.5714C30.4643 4.625 32 6.17871 32 8.09375V11.5625H0V8.09375C0 6.17871 1.53571 4.625 3.42857 4.625H6.85714V2.3125C6.85714 1.0334 7.87857 0 9.14286 0ZM0 13.875H32V33.5312C32 35.4463 30.4643 37 28.5714 37H3.42857C1.53571 37 0 35.4463 0 33.5312V13.875ZM4.57143 19.6562V21.9688C4.57143 22.6047 5.08571 23.125 5.71429 23.125H8C8.62857 23.125 9.14286 22.6047 9.14286 21.9688V19.6562C9.14286 19.0203 8.62857 18.5 8 18.5H5.71429C5.08571 18.5 4.57143 19.0203 4.57143 19.6562ZM13.7143 19.6562V21.9688C13.7143 22.6047 14.2286 23.125 14.8571 23.125H17.1429C17.7714 23.125 18.2857 22.6047 18.2857 21.9688V19.6562C18.2857 19.0203 17.7714 18.5 17.1429 18.5H14.8571C14.2286 18.5 13.7143 19.0203 13.7143 19.6562ZM24 18.5C23.3714 18.5 22.8571 19.0203 22.8571 19.6562V21.9688C22.8571 22.6047 23.3714 23.125 24 23.125H26.2857C26.9143 23.125 27.4286 22.6047 27.4286 21.9688V19.6562C27.4286 19.0203 26.9143 18.5 26.2857 18.5H24ZM4.57143 28.9062V31.2188C4.57143 31.8547 5.08571 32.375 5.71429 32.375H8C8.62857 32.375 9.14286 31.8547 9.14286 31.2188V28.9062C9.14286 28.2703 8.62857 27.75 8 27.75H5.71429C5.08571 27.75 4.57143 28.2703 4.57143 28.9062ZM14.8571 27.75C14.2286 27.75 13.7143 28.2703 13.7143 28.9062V31.2188C13.7143 31.8547 14.2286 32.375 14.8571 32.375H17.1429C17.7714 32.375 18.2857 31.8547 18.2857 31.2188V28.9062C18.2857 28.2703 17.7714 27.75 17.1429 27.75H14.8571ZM22.8571 28.9062V31.2188C22.8571 31.8547 23.3714 32.375 24 32.375H26.2857C26.9143 32.375 27.4286 31.8547 27.4286 31.2188V28.9062C27.4286 28.2703 26.9143 27.75 26.2857 27.75H24C23.3714 27.75 22.8571 28.2703 22.8571 28.9062Z" fill="white"/>
</g>
<defs>
<clipPath id="clip0_2_48">
<rect width="32" height="37" fill="white"/>
</clipPath>
</defs>
</svg>
