<svg width="34" height="30" viewBox="0 0 34 30" fill="none" xmlns="http://www.w3.org/2000/svg">
<g clip-path="url(#clip0_2_45)">
<path d="M33.9882 14.9707C33.9882 16.0254 33.1028 16.8516 32.0993 16.8516H30.2104L30.2518 26.2383C30.2518 26.3965 30.2399 26.5547 30.2222 26.7129V27.6621C30.2222 28.957 29.1656 30.0059 27.8611 30.0059H26.9167C26.8518 30.0059 26.7868 30.0059 26.7219 30C26.6393 30.0059 26.5566 30.0059 26.474 30.0059L24.5556 30H23.1389C21.8344 30 20.7778 28.9512 20.7778 27.6562V26.25V22.5C20.7778 21.4629 19.9337 20.625 18.8889 20.625H15.1111C14.0663 20.625 13.2222 21.4629 13.2222 22.5V26.25V27.6562C13.2222 28.9512 12.1656 30 10.8611 30H9.44446H7.56148C7.47293 30 7.38439 29.9941 7.29585 29.9883C7.22502 29.9941 7.15418 30 7.08335 30H6.13891C4.83439 30 3.7778 28.9512 3.7778 27.6562V21.0938C3.7778 21.041 3.7778 20.9824 3.7837 20.9297V16.8457H1.89481C0.832309 16.8457 0.00592041 16.0254 0.00592041 14.9648C0.00592041 14.4375 0.183004 13.9687 0.596198 13.5586L15.725 0.46875C16.1382 0.0585938 16.6104 0 17.0236 0C17.4368 0 17.909 0.117188 18.2632 0.410156L33.3389 13.5645C33.8111 13.9746 34.0472 14.4434 33.9882 14.9707Z" fill="white"/>
</g>
<defs>
<clipPath id="clip0_2_45">
<rect width="34" height="30" fill="white"/>
</clipPath>
</defs>
</svg>
