<svg width="34" height="30" viewBox="0 0 34 30" fill="none" xmlns="http://www.w3.org/2000/svg">
<g clip-path="url(#clip0_2_45)">
<path d="M33.9881 14.9707C33.9881 16.0254 33.1027 16.8516 32.0993 16.8516H30.2104L30.2517 26.2383C30.2517 26.3965 30.2399 26.5547 30.2222 26.7129V27.6621C30.2222 28.957 29.1656 30.0059 27.8611 30.0059H26.9166C26.8517 30.0059 26.7868 30.0059 26.7218 30C26.6392 30.0059 26.5566 30.0059 26.4739 30.0059L24.5555 30H23.1388C21.8343 30 20.7777 28.9512 20.7777 27.6562V26.25V22.5C20.7777 21.4629 19.9336 20.625 18.8888 20.625H15.1111C14.0663 20.625 13.2222 21.4629 13.2222 22.5V26.25V27.6562C13.2222 28.9512 12.1656 30 10.8611 30H9.4444H7.56141C7.47287 30 7.38433 29.9941 7.29579 29.9883C7.22496 29.9941 7.15412 30 7.08329 30H6.13885C4.83433 30 3.77773 28.9512 3.77773 27.6562V21.0938C3.77773 21.041 3.77773 20.9824 3.78364 20.9297V16.8457H1.89475C0.832248 16.8457 0.00585938 16.0254 0.00585938 14.9648C0.00585938 14.4375 0.182943 13.9687 0.596137 13.5586L15.725 0.46875C16.1381 0.0585938 16.6104 0 17.0236 0C17.4368 0 17.909 0.117188 18.2631 0.410156L33.3388 13.5645C33.8111 13.9746 34.0472 14.4434 33.9881 14.9707Z" fill="black"/>
</g>
<defs>
<clipPath id="clip0_2_45">
<rect width="34" height="30" fill="white"/>
</clipPath>
</defs>
</svg>
