<svg width="15" height="39" viewBox="0 0 15 39" fill="none" xmlns="http://www.w3.org/2000/svg">
<path d="M3.75 6.09375C3.75 5.12405 4.14509 4.19407 4.84835 3.50839C5.55161 2.82271 6.50544 2.4375 7.5 2.4375C8.49456 2.4375 9.44839 2.82271 10.1517 3.50839C10.8549 4.19407 11.25 5.12405 11.25 6.09375C11.25 7.06345 10.8549 7.99343 10.1517 8.67911C9.44839 9.36479 8.49456 9.75 7.5 9.75C6.50544 9.75 5.55161 9.36479 4.84835 8.67911C4.14509 7.99343 3.75 7.06345 3.75 6.09375ZM0 17.0625C0 15.7143 1.11719 14.625 2.5 14.625H7.5C8.88281 14.625 10 15.7143 10 17.0625V34.125H12.5C13.8828 34.125 15 35.2143 15 36.5625C15 37.9107 13.8828 39 12.5 39H2.5C1.11719 39 0 37.9107 0 36.5625C0 35.2143 1.11719 34.125 2.5 34.125H5V19.5H2.5C1.11719 19.5 0 18.4107 0 17.0625Z" fill="black"/>
</svg>
