<svg width="34" height="34" viewBox="0 0 34 34" fill="none" xmlns="http://www.w3.org/2000/svg">
<g clip-path="url(#clip0_71_5)">
<path d="M32.9308 11.0633C33.1433 11.641 32.964 12.2852 32.5058 12.6969L29.6304 15.3133C29.7035 15.8645 29.7433 16.4289 29.7433 17C29.7433 17.5711 29.7035 18.1355 29.6304 18.6867L32.5058 21.3031C32.964 21.7148 33.1433 22.359 32.9308 22.9367C32.6386 23.727 32.2867 24.484 31.8816 25.2145L31.5695 25.7523C31.1312 26.4828 30.6398 27.1734 30.1019 27.8242C29.7101 28.3023 29.0593 28.4617 28.475 28.2758L24.7761 27.1004C23.8863 27.7844 22.9035 28.3555 21.8543 28.7871L21.0242 32.5789C20.8914 33.1832 20.4265 33.6613 19.8156 33.7609C18.8992 33.9137 17.9562 33.9934 16.9933 33.9934C16.0304 33.9934 15.0875 33.9137 14.1711 33.7609C13.5601 33.6613 13.0953 33.1832 12.9625 32.5789L12.1324 28.7871C11.0832 28.3555 10.1004 27.7844 9.21051 27.1004L5.51833 28.2824C4.93395 28.4684 4.28317 28.3023 3.89137 27.8309C3.35348 27.1801 2.86208 26.4895 2.4238 25.759L2.11169 25.2211C1.70661 24.4906 1.35466 23.7336 1.06247 22.9434C0.849968 22.3656 1.02927 21.7215 1.48747 21.3098L4.36286 18.6934C4.28981 18.1355 4.24997 17.5711 4.24997 17C4.24997 16.4289 4.28981 15.8645 4.36286 15.3133L1.48747 12.6969C1.02927 12.2852 0.849968 11.641 1.06247 11.0633C1.35466 10.273 1.70661 9.51602 2.11169 8.78555L2.4238 8.24766C2.86208 7.51719 3.35348 6.82656 3.89137 6.17578C4.28317 5.69766 4.93395 5.53828 5.51833 5.72422L9.21716 6.89961C10.107 6.21563 11.0898 5.64453 12.139 5.21289L12.9691 1.42109C13.1019 0.816797 13.5668 0.338672 14.1777 0.239062C15.0941 0.0796875 16.0371 0 17 0C17.9629 0 18.9058 0.0796875 19.8222 0.232422C20.4332 0.332031 20.898 0.810156 21.0308 1.41445L21.8609 5.20625C22.9101 5.63789 23.8929 6.20898 24.7828 6.89297L28.4816 5.71758C29.066 5.53164 29.7168 5.69766 30.1086 6.16914C30.6465 6.81992 31.1379 7.51055 31.5761 8.24102L31.8883 8.77891C32.2933 9.50937 32.6453 10.2664 32.9375 11.0566L32.9308 11.0633ZM17 22.3125C18.4089 22.3125 19.7602 21.7528 20.7565 20.7565C21.7528 19.7602 22.3125 18.409 22.3125 17C22.3125 15.591 21.7528 14.2398 20.7565 13.2435C19.7602 12.2472 18.4089 11.6875 17 11.6875C15.591 11.6875 14.2398 12.2472 13.2435 13.2435C12.2472 14.2398 11.6875 15.591 11.6875 17C11.6875 18.409 12.2472 19.7602 13.2435 20.7565C14.2398 21.7528 15.591 22.3125 17 22.3125Z" fill="white"/>
</g>
<defs>
<clipPath id="clip0_71_5">
<rect width="34" height="34" fill="white"/>
</clipPath>
</defs>
</svg>
