<svg width="26" height="30" viewBox="0 0 26 30" fill="none" xmlns="http://www.w3.org/2000/svg">
<g clip-path="url(#clip0_2_20)">
<path d="M13 15C14.9702 15 16.8597 14.2098 18.2528 12.8033C19.6459 11.3968 20.4286 9.48912 20.4286 7.5C20.4286 5.51088 19.6459 3.60322 18.2528 2.1967C16.8597 0.790176 14.9702 0 13 0C11.0298 0 9.14033 0.790176 7.74721 2.1967C6.35408 3.60322 5.57143 5.51088 5.57143 7.5C5.57143 9.48912 6.35408 11.3968 7.74721 12.8033C9.14033 14.2098 11.0298 15 13 15ZM10.3478 17.8125C4.63125 17.8125 0 22.4883 0 28.2598C0 29.2207 0.771875 30 1.72366 30H24.2763C25.2281 30 26 29.2207 26 28.2598C26 22.4883 21.3688 17.8125 15.6522 17.8125H10.3478Z" fill="white"/>
</g>
<defs>
<clipPath id="clip0_2_20">
<rect width="26" height="30" fill="white"/>
</clipPath>
</defs>
</svg>
